<svg width="57" height="58" viewBox="0 0 57 58" fill="none" xmlns="http://www.w3.org/2000/svg">
<path d="M57 29.5C57 45.2401 44.2401 58 28.5 58C12.7599 58 0 45.2401 0 29.5C0 13.7599 12.7599 1 28.5 1C44.2401 1 57 13.7599 57 29.5Z" fill="#D2E0EE"/>
<path d="M28.5 1C32.512 1 36.3303 1.82929 39.7931 3.32536C39.8013 3.3468 39.809 3.36855 39.8153 3.39097C39.8671 3.57684 39.8479 3.76925 39.8079 3.93692C39.7281 4.27105 39.5305 4.64723 39.3139 4.99749C38.8805 5.69851 38.2574 6.46596 38.0156 6.80086C37.7015 7.23576 37.2601 7.77069 36.8319 8.23338C36.6175 8.46497 36.4033 8.68212 36.207 8.86153C36.0161 9.03612 35.8235 9.1925 35.6556 9.28584C35.0947 9.59757 34.6475 9.84866 34.3377 10.0928C34.0209 10.3424 33.9441 10.5106 33.9451 10.6339C33.9454 10.6665 33.9555 10.7064 33.9941 10.7969C34.0252 10.8697 34.0955 11.016 34.1242 11.1736C34.1958 11.5659 34.259 12.0765 34.2216 12.5848C34.1844 13.0889 34.0449 13.6363 33.6682 14.0534C33.5091 14.2296 33.3084 14.3693 33.0758 14.505C32.8445 14.64 32.5537 14.7864 32.2062 14.9647C31.3124 15.4233 30.7453 15.7389 30.3892 16.0046C30.0419 16.2637 29.9505 16.4351 29.9225 16.5929C29.8394 17.0627 29.7929 17.5916 29.8164 18.0251C29.8281 18.2427 29.857 18.4201 29.8986 18.5486C29.9419 18.6824 29.9826 18.7133 29.9823 18.7133C30.0521 18.7572 30.1506 18.8018 30.2904 18.8564C30.3589 18.8831 30.4317 18.9103 30.5124 18.9404C30.5918 18.9701 30.6776 19.0023 30.7663 19.0374C31.1223 19.1781 31.5438 19.3719 31.9463 19.7031C33.192 20.7281 34.1059 21.5006 34.2426 22.8848C34.2665 23.1274 34.2789 23.3691 34.23 23.6191C34.1798 23.8761 34.0702 24.1169 33.8865 24.3756C33.2813 25.2279 32.8616 25.7941 32.6132 26.3548C32.3779 26.8862 32.298 27.4152 32.4237 28.1814C32.45 28.3416 32.5126 28.5317 32.601 28.7856C32.686 29.0295 32.7894 29.3197 32.8724 29.6423C33.0408 30.2973 33.1283 31.0964 32.8606 32.0546C32.6968 32.6409 32.5327 33.1318 32.3456 33.5181C32.1595 33.9021 31.9333 34.2198 31.6242 34.4161C31.3237 34.6069 30.8155 34.753 30.1824 34.6557C29.677 34.5781 29.175 34.4438 28.7606 34.2488C28.3587 34.0597 27.9746 33.7829 27.8073 33.3836C27.6591 33.0299 27.0996 31.576 26.2572 29.7112C25.906 28.9338 25.7349 28.6085 25.27 28.174C24.9475 27.8727 24.6892 27.6078 24.4656 27.3763C24.2396 27.1423 24.0565 26.9503 23.8725 26.7802C23.5191 26.4536 23.168 26.2128 22.5627 25.9994C21.9755 25.7925 20.2592 25.5004 18.9291 24.1515C17.9432 23.1516 17.2796 22.2808 17.0995 20.951C16.9547 19.8815 16.829 18.9327 16.7036 18.1792C16.641 17.8029 16.5795 17.4813 16.5171 17.2218C16.4532 16.9565 16.3936 16.7789 16.342 16.677C16.1956 16.3882 16.0783 16.159 15.9737 15.9869C15.922 15.9018 15.8788 15.8394 15.8425 15.7959C15.8091 15.756 15.7908 15.7433 15.7887 15.7418C15.7389 15.7134 15.6109 15.6677 15.392 15.6378C15.1817 15.6091 14.9134 15.5984 14.6035 15.6201C14.1182 15.6541 12.8469 15.773 10.8976 15.6168C10.0562 15.5494 9.37766 15.4902 8.85571 15.4258C8.34617 15.363 7.94355 15.2909 7.67976 15.1825C7.29837 15.0258 6.52801 14.7618 5.94791 14.484C5.65575 14.344 5.36198 14.1786 5.16087 13.9889C5.05989 13.8936 4.95637 13.7682 4.90393 13.611C4.8961 13.5876 4.88994 13.5638 4.88477 13.5399C10.0086 5.97322 18.6735 1 28.5 1Z" fill="#769A96"/>
<path d="M6.75858 25.0723C7.51392 24.9936 8.06432 25.0743 8.47605 25.1394C8.6399 25.1653 8.7817 25.2472 8.89593 25.3351C9.01319 25.4254 9.12611 25.5409 9.23323 25.6688C9.44738 25.9243 9.66864 26.2642 9.88756 26.6453C10.3268 27.41 10.7855 28.3921 11.1907 29.3253C11.4812 29.9944 11.8464 30.5612 12.203 31.0446C12.3667 31.2665 12.7159 31.5194 13.2591 31.7951C13.7901 32.0646 14.4578 32.3327 15.2059 32.6061C15.798 32.8226 16.3477 32.9951 16.8894 33.1617C17.4291 33.3276 17.9655 33.489 18.517 33.68C19.2261 33.9255 19.9491 34.3766 20.5743 34.8224C21.1952 35.2651 21.7667 35.7387 22.1204 36.0083C22.6195 36.3887 22.8777 37.0138 23.0162 37.7633C23.1558 38.5191 23.1866 39.4732 23.1703 40.5945C23.1445 42.3635 22.23 43.4269 21.2478 44.3571C20.1972 45.3522 19.326 45.9067 18.6209 46.2505C18.2695 46.4218 17.9638 46.5386 17.7063 46.6301C17.4378 46.7257 17.2549 46.7832 17.1007 46.8499C16.9346 46.9216 16.8381 46.9544 16.7173 47.0124C16.6129 47.0625 16.5395 47.1109 16.4828 47.1691C16.3827 47.2721 16.3165 47.4471 16.3144 47.7239C16.3123 47.9981 16.3743 48.3237 16.4747 48.6624C16.6097 49.1175 17.0034 49.5716 18.079 50.4109C20.0128 51.9198 21.2231 52.8019 22.0279 53.4204C22.8065 54.0189 23.2349 54.3885 23.4689 54.8319C23.5994 55.0795 23.6198 55.3694 23.6167 55.6186C23.6135 55.8674 23.5827 56.1603 23.5665 56.4016C23.534 56.8858 23.2514 57.2227 22.9893 57.4669C9.88638 54.8999 0 43.3548 0 29.5C1.62746e-06 28.8417 0.0227963 28.1886 0.0667232 27.5414C0.168196 27.5002 0.276229 27.4574 0.389648 27.4109C1.2624 27.0537 2.47745 26.5445 3.85741 25.9264C5.06641 25.385 6.00598 25.1507 6.75858 25.0723Z" fill="#769A96"/>
<path d="M51.2616 19.0175C52.0967 18.735 53.0345 18.7042 53.8222 18.7723C54.2533 18.8096 54.6557 18.8789 54.9871 18.9596C56.2856 22.2199 56.9998 25.7763 56.9998 29.4996C56.9998 30.7047 56.9246 31.8923 56.7794 33.0581C56.7304 33.0725 56.6812 33.0864 56.6319 33.099C56.1683 33.2177 55.6491 33.2736 55.1563 33.3139C54.6501 33.3554 54.1827 33.38 53.7695 33.4333C53.347 33.4879 53.0648 33.5645 52.9105 33.6663C52.6335 33.8493 52.3767 34.1778 52.111 34.6351C51.8455 35.092 51.6032 35.6177 51.3202 36.1804C51.0038 36.8098 50.8116 37.6193 50.6408 38.4273C50.5573 38.8226 50.4776 39.2219 50.3924 39.5763C50.3076 39.9291 50.2109 40.2655 50.0846 40.5373C49.8391 41.0652 49.2486 41.5358 48.5466 41.9411C47.8259 42.3571 46.915 42.7448 45.9337 43.0776C44.8257 43.4534 43.493 42.9906 42.5 43.3832C42.1218 43.8273 41.3869 44.2932 41.2399 44.5252L41.2377 44.5286C38 46 38.3387 46.0798 35.0472 44.6705C34.1081 44.2683 33.4721 43.3077 32.981 42.2696C32.7437 41.768 32.8471 41.2727 33.002 40.8909C33.1504 40.5249 33.4421 40.2889 33.7665 40.1366C34.0867 39.9865 34.4646 39.9052 34.8415 39.8568C35.2213 39.8081 35.6246 39.7899 36.0034 39.7783C36.3896 39.7665 36.7425 39.7613 37.0514 39.74C38.2275 39.6587 39.2363 39.1376 40.4215 38.0137C42.2291 36.2994 43.0527 34.3527 43.6515 32.6187C44.1272 31.241 44.776 28.7855 45.2296 27.1245C45.6963 25.416 46.0157 24.3465 46.4141 23.4566C46.8168 22.5571 47.2949 21.8528 48.0578 20.8629C48.7627 19.9482 49.7959 19.5133 51.2616 19.0175Z" fill="#769A96"/>
<g filter="url(#filter0_d_52_12430)">
<path d="M42.2581 24.2664C45.0171 28.0667 43.5702 32.6209 40.2485 35.311C35.086 39.492 32.9082 41.5113 28.279 45.4755L15.8171 33.9282C12.6823 31.0234 12.4958 26.1272 15.4006 22.9923C18.3054 19.8575 23.2015 19.671 26.3364 22.5758L28.7078 24.7731C29.8396 23.825 30.9267 22.9303 31.4497 22.5505C34.8914 20.1163 39.7572 20.8215 42.2581 24.2664Z" fill="#769A96"/>
</g>
<defs>
<filter id="filter0_d_52_12430" x="5.33832" y="12.5135" width="46.3732" height="40.9619" filterUnits="userSpaceOnUse" color-interpolation-filters="sRGB">
<feFlood flood-opacity="0" result="BackgroundImageFix"/>
<feColorMatrix in="SourceAlpha" type="matrix" values="0 0 0 0 0 0 0 0 0 0 0 0 0 0 0 0 0 0 127 0" result="hardAlpha"/>
<feOffset/>
<feGaussianBlur stdDeviation="4"/>
<feComposite in2="hardAlpha" operator="out"/>
<feColorMatrix type="matrix" values="0 0 0 0 0.823529 0 0 0 0 0.878431 0 0 0 0 0.933333 0 0 0 1 0"/>
<feBlend mode="normal" in2="BackgroundImageFix" result="effect1_dropShadow_52_12430"/>
<feBlend mode="normal" in="SourceGraphic" in2="effect1_dropShadow_52_12430" result="shape"/>
</filter>
</defs>
</svg>
